<svg xmlns="http://www.w3.org/2000/svg" viewBox="0 0 100 100">
  <defs>
    <clipPath id="c">
      <circle cx="50" cy="50" r="50"/>
    </clipPath>
  </defs>
  <g clip-path="url(#c)">
    <!-- Background -->
    <circle cx="50" cy="50" r="50" fill="#dbeafe"/>
    <!-- Body / blue shirt -->
    <path d="M0 100 L0 82 Q20 78 37 78 L44 76 L50 83 L56 76 L63 78 Q80 78 100 82 L100 100Z" fill="#1d4ed8"/>
    <!-- Collar V -->
    <path d="M44 76 L50 83 L56 76" fill="none" stroke="white" stroke-width="1.8" stroke-linecap="round" stroke-linejoin="round"/>
    <!-- Neck -->
    <rect x="44" y="72" width="12" height="7" rx="2" fill="#f0c080"/>
    <!-- Face -->
    <circle cx="50" cy="52" r="23" fill="#fcd9a8"/>
    <!-- Ears -->
    <ellipse cx="27.5" cy="53" rx="3" ry="4" fill="#f0c080"/>
    <ellipse cx="72.5" cy="53" rx="3" ry="4" fill="#f0c080"/>
    <!-- Short black hair -->
    <path d="M27 47 Q27 28 50 28 Q73 28 73 47 Q70 35 50 35 Q30 35 27 47Z" fill="#1a1a2e"/>
    <path d="M27 47 Q25 54 27 60 Q29 55 30 49Z" fill="#1a1a2e"/>
    <path d="M73 47 Q75 54 73 60 Q71 55 70 49Z" fill="#1a1a2e"/>
    <!-- Eyebrows (thick, masculine) -->
    <line x1="33" y1="43.5" x2="44" y2="42" stroke="#1a1a2e" stroke-width="2.5" stroke-linecap="round"/>
    <line x1="56" y1="42" x2="67" y2="43.5" stroke="#1a1a2e" stroke-width="2.5" stroke-linecap="round"/>
    <!-- Left eye -->
    <ellipse cx="38.5" cy="51" rx="5.5" ry="5" fill="white"/>
    <circle cx="38.5" cy="51" r="3.2" fill="#4a6fa5"/>
    <circle cx="39" cy="51" r="1.9" fill="#111"/>
    <circle cx="39.8" cy="50" r="1" fill="white"/>
    <!-- Right eye -->
    <ellipse cx="61.5" cy="51" rx="5.5" ry="5" fill="white"/>
    <circle cx="61.5" cy="51" r="3.2" fill="#4a6fa5"/>
    <circle cx="62" cy="51" r="1.9" fill="#111"/>
    <circle cx="62.8" cy="50" r="1" fill="white"/>
    <!-- Nose -->
    <path d="M47.5 58 Q50 62 52.5 58" stroke="#c07040" stroke-width="1.3" fill="none" stroke-linecap="round"/>
    <!-- Gentle smile -->
    <path d="M41 65 Q50 72 59 65" stroke="#b06040" stroke-width="2.2" fill="none" stroke-linecap="round"/>
    <!-- Cheek blush -->
    <ellipse cx="29" cy="57" rx="4.5" ry="2.5" fill="#ffaa88" opacity="0.3"/>
    <ellipse cx="71" cy="57" rx="4.5" ry="2.5" fill="#ffaa88" opacity="0.3"/>
  </g>
</svg>
